/* XPM */
static char * dirssync_xpm[] = {
"35 32 385 2",
"  	c None",
". 	c #364D21",
"+ 	c #3D6319",
"@ 	c #446D1D",
"# 	c #417112",
"$ 	c #427212",
"% 	c #476F1E",
"& 	c #3D6B0C",
"* 	c #2F4A12",
"= 	c #354B22",
"- 	c #3D6C13",
"; 	c #499205",
"> 	c #51A101",
", 	c #55A500",
"' 	c #58A700",
") 	c #5AA900",
"! 	c #5BAA00",
"~ 	c #5CAB00",
"{ 	c #5CAA00",
"] 	c #549D00",
"^ 	c #497B11",
"/ 	c #3C5620",
"( 	c #323C2A",
"_ 	c #3E6F14",
": 	c #4C9C02",
"< 	c #52A300",
"[ 	c #57A700",
"} 	c #5FAD00",
"| 	c #62AF00",
"1 	c #64B100",
"2 	c #66B100",
"3 	c #66B200",
"4 	c #5FAB02",
"5 	c #4F8310",
"6 	c #384D1F",
"7 	c #335518",
"8 	c #479205",
"9 	c #4FA100",
"0 	c #55A600",
"a 	c #60AE00",
"b 	c #65B100",
"c 	c #68B300",
"d 	c #69B300",
"e 	c #6AB103",
"f 	c #6BB302",
"g 	c #6DB602",
"h 	c #6EB800",
"i 	c #6DB800",
"j 	c #6CB700",
"k 	c #6AB500",
"l 	c #68B400",
"m 	c #62A906",
"n 	c #44651B",
"o 	c #34640F",
"p 	c #499B01",
"q 	c #51A200",
"r 	c #5EAC00",
"s 	c #64B000",
"t 	c #5FA105",
"u 	c #4E7715",
"v 	c #486321",
"w 	c #394B1E",
"x 	c #434C36",
"y 	c #424D31",
"z 	c #414F2C",
"A 	c #436114",
"B 	c #517B0F",
"C 	c #6EAD0A",
"D 	c #71BA00",
"E 	c #6FB900",
"F 	c #6DB700",
"G 	c #65B001",
"H 	c #4C7419",
"I 	c #386316",
"J 	c #499C00",
"K 	c #59A800",
"L 	c #60AD00",
"M 	c #5D9F04",
"N 	c #425F1A",
"O 	c #52731B",
"P 	c #6FAF07",
"Q 	c #73BC00",
"R 	c #70BA00",
"S 	c #4B7612",
"T 	c #37591D",
"U 	c #489902",
"V 	c #50A200",
"W 	c #58A800",
"X 	c #51860A",
"Y 	c #460808",
"Z 	c #631C1C",
"` 	c #520C0C",
" .	c #3D0303",
"..	c #435329",
"+.	c #64970E",
"@.	c #76BE00",
"#.	c #72BB00",
"$.	c #68B301",
"%.	c #45631D",
"&.	c #324623",
"*.	c #449105",
"=.	c #4D9F00",
"-.	c #56A600",
";.	c #4E7A14",
">.	c #830808",
",.	c #C40C0C",
"'.	c #EA0E0E",
").	c #C90C0C",
"!.	c #A10909",
"~.	c #8E0808",
"{.	c #790707",
"].	c #620505",
"^.	c #608F0D",
"/.	c #78BF00",
"(.	c #64A805",
"_.	c #3B452E",
":.	c #3B7111",
"<.	c #4A9D00",
"[.	c #53A400",
"}.	c #5DAB00",
"|.	c #51850D",
"1.	c #590505",
"2.	c #CD0C0C",
"3.	c #F30F0F",
"4.	c #B60B0B",
"5.	c #5E0606",
"6.	c #420909",
"7.	c #310202",
"8.	c #69A107",
"9.	c #78C000",
"0.	c #548017",
"a.	c #314820",
"b.	c #469802",
"c.	c #4FA000",
"d.	c #5CA006",
"e.	c #3E4A2F",
"f.	c #5C0808",
"g.	c #E10E0E",
"h.	c #900909",
"i.	c #1E0101",
"j.	c #3F4E23",
"k.	c #78BA02",
"l.	c #77BF00",
"m.	c #71BB00",
"n.	c #6BB401",
"o.	c #3C531B",
"p.	c #3A6D13",
"q.	c #486D18",
"r.	c #E50E0E",
"s.	c #A40E0E",
"t.	c #597F13",
"u.	c #7BC200",
"v.	c #75BD00",
"w.	c #457007",
"x.	c #3B8701",
"y.	c #4C9E00",
"z.	c #5DA207",
"A.	c #8C0D0D",
"B.	c #530A0A",
"C.	c #280C0C",
"D.	c #3C4B1E",
"E.	c #7ABC02",
"F.	c #79C000",
"G.	c #508207",
"H.	c #274014",
"I.	c #439700",
"J.	c #4EA000",
"K.	c #487A09",
"L.	c #4B6A14",
"M.	c #6CAA01",
"N.	c #62970C",
"O.	c #384820",
"P.	c #365F17",
"Q.	c #469A00",
"R.	c #426416",
"S.	c #000000",
"T.	c #010101",
"U.	c #090909",
"V.	c #070707",
"W.	c #141414",
"X.	c #3B651B",
"Y.	c #54A400",
"Z.	c #4D642F",
"`.	c #191919",
" +	c #050505",
".+	c #0F0F0F",
"++	c #252525",
"@+	c #212121",
"#+	c #1D1D1D",
"$+	c #0C0C0C",
"%+	c #0D0D0D",
"&+	c #242424",
"*+	c #292929",
"=+	c #2E2E2E",
"-+	c #272727",
";+	c #121212",
">+	c #101010",
",+	c #3E691D",
"'+	c #54A500",
")+	c #5FAC00",
"!+	c #3A5319",
"~+	c #030303",
"{+	c #020202",
"]+	c #040404",
"^+	c #1C1C1C",
"/+	c #111111",
"(+	c #202020",
"_+	c #0E0E0E",
":+	c #2B2B2B",
"<+	c #0A0A0A",
"[+	c #171717",
"}+	c #3F691F",
"|+	c #3B531B",
"1+	c #151515",
"2+	c #181818",
"3+	c #0B0B0B",
"4+	c #2A2A2A",
"5+	c #060606",
"6+	c #1F1F1F",
"7+	c #3A631A",
"8+	c #499D00",
"9+	c #45651B",
"0+	c #161616",
"a+	c #080808",
"b+	c #363636",
"c+	c #395921",
"d+	c #4C7318",
"e+	c #479703",
"f+	c #51A300",
"g+	c #589408",
"h+	c #290909",
"i+	c #760A0A",
"j+	c #43522B",
"k+	c #4A6918",
"l+	c #456811",
"m+	c #293C0F",
"n+	c #3F8109",
"o+	c #59A900",
"p+	c #63AF00",
"q+	c #3E561C",
"r+	c #780D0D",
"s+	c #5C860F",
"t+	c #78BD02",
"u+	c #74BC00",
"v+	c #64AE00",
"w+	c #497712",
"x+	c #3A5F1B",
"y+	c #4C9F00",
"z+	c #54880C",
"A+	c #250606",
"B+	c #610606",
"C+	c #E80E0E",
"D+	c #F40F0F",
"E+	c #B50B0B",
"F+	c #5F8B0B",
"G+	c #7EC400",
"H+	c #6BB600",
"I+	c #4A7D07",
"J+	c #58A601",
"K+	c #3D6D0D",
"L+	c #469105",
"M+	c #65B000",
"N+	c #456519",
"O+	c #230202",
"P+	c #410A0A",
"Q+	c #8F0808",
"R+	c #EB0E0E",
"S+	c #BB0B0B",
"T+	c #506A1D",
"U+	c #7FC401",
"V+	c #7AC100",
"W+	c #508E05",
"X+	c #55A401",
"Y+	c #4B9B02",
"Z+	c #314224",
"`+	c #3B5F1D",
" @	c #61AE00",
".@	c #64AB02",
"+@	c #3F5520",
"@@	c #4C0909",
"#@	c #650606",
"$@	c #8D0B0B",
"%@	c #8A0909",
"&@	c #910C0C",
"*@	c #A80A0A",
"=@	c #E00E0E",
"-@	c #DD0D0D",
";@	c #870808",
">@	c #4D6322",
",@	c #7FC301",
"'@	c #7CC200",
")@	c #5DA202",
"!@	c #4F9104",
"~@	c #479B00",
"{@	c #395A20",
"]@	c #43830A",
"^@	c #455C25",
"/@	c #4B0909",
"(@	c #740808",
"_@	c #850808",
":@	c #951313",
"<@	c #8A0A0A",
"[@	c #720C0C",
"}@	c #4D6A17",
"|@	c #7CBF03",
"1@	c #67B200",
"2@	c #569B03",
"3@	c #488904",
"4@	c #429700",
"5@	c #2F5615",
"6@	c #334822",
"7@	c #4B9605",
"8@	c #69B202",
"9@	c #4F7715",
"0@	c #5C8315",
"a@	c #7DC201",
"b@	c #6DAB07",
"c@	c #598318",
"d@	c #469B00",
"e@	c #3C9001",
"f@	c #27391C",
"g@	c #36521D",
"h@	c #4E9D03",
"i@	c #66A507",
"j@	c #53751E",
"k@	c #313F1B",
"l@	c #3E4F20",
"m@	c #567C12",
"n@	c #74B206",
"o@	c #4C6B1B",
"p@	c #4F8107",
"q@	c #61AF00",
"r@	c #409600",
"s@	c #326312",
"t@	c #395123",
"u@	c #4D9605",
"v@	c #69B500",
"w@	c #70B800",
"x@	c #67A406",
"y@	c #5D8B12",
"z@	c #578210",
"A@	c #588311",
"B@	c #5E900B",
"C@	c #6DA907",
"D@	c #79BF01",
"E@	c #5B910E",
"F@	c #375213",
"G@	c #4C7C0E",
"H@	c #57A400",
"I@	c #419103",
"J@	c #315F11",
"K@	c #344820",
"L@	c #48850C",
"M@	c #67B300",
"N@	c #6BB501",
"O@	c #598F0E",
"P@	c #394B21",
"Q@	c #35400A",
"R@	c #4B330B",
"S@	c #2B3722",
"T@	c #3E611B",
"U@	c #4E9305",
"V@	c #63B000",
"W@	c #6CB600",
"X@	c #69B400",
"Y@	c #5C9C05",
"Z@	c #44601E",
"`@	c #691313",
" #	c #B00E0E",
".#	c #416220",
"+#	c #417706",
"@#	c #519800",
"##	c #64AE02",
"$#	c #5E9F07",
"%#	c #4F820C",
"&#	c #415E1C",
"*#	c #541212",
"=#	c #511212",
"-#	c #2B0F0F",
";#	c #364E1C",
">#	c #415A25",
",#	c #456323",
"'#	c #466423",
")#	c #465F29",
"!#	c #394A25",
"                        . + @ # $ % & *                               ",
"                  = - ; > , ' ) ! ~ ~ { ] ^ /                         ",
"              ( _ : < [ ! } | 1 2 3 3 3 1 | 4 5 6                     ",
"            7 8 9 0 ! a b c d e f g h i j k l 3 m n                   ",
"          o p q ' r s t u v w x y z A B C D E F k G H                 ",
"        I J q K L M N                     O P Q R j l S               ",
"      T U V W L X           Y Z `  .        ..+.@.#.h $.%.            ",
"    &.*.=.-.} ;.        >.,.'.).!.~.{.].        ^./.Q h (._.          ",
"    :.<.[.}.|.      1.2.3.4.5.          6.7.      8.9.Q i 0.          ",
"  a.b.c.W d.e.    f.g.3.h.                  i.    j.k.l.m.n.o.        ",
"  p.J [.}.q.        r.s.                            t.u.v.E w.        ",
"  x.y.-.z.          A.B.                      C.    D.E.F.#.G.        ",
"H.I.J.K K.                                            L.M.N.O.        ",
"P.Q.q ! R.    S.T.U.    V.              U.S.W.                        ",
"X.J Y.r Z.    S.`. +.+  ++  @+#+  $+%+&+S.*+  =+-+  ++  @+;+;+  ;+>+  ",
",+<.'+)+!+    S.  $+~+  $+  S.{+#+]+^+  .+S./+(+$+(+_+:+{+<+V.  S.[+  ",
"}+<., } |+    S.1+~+2+  $+  S.    W.T.2+W._+3+  ~+~+  4+<+^+5+/+{+6+  ",
"7+8+'+)+9+    `._+0+    (+  `.    a+3+@+3+<+    %+U.  b+(+  #+  3+3+  ",
"c+J [.r d+                                      ~+`.                  ",
"  e+f+{ g+      h+                        i+            j+k+l+m+      ",
"  n+9 o+p+q+                            r+r.          s+t+u+F v+w+    ",
"  x+y+-.L z+      A+                  B+C+D+E+      F+G+9.m.H+I+J+K+  ",
"    L+< { M+N+      O+P+            Q+R+D+S+      T+U+V+v.h c W+X+Y+Z+",
"    `+J.[  @.@+@      @@#@$@%@&@*@=@D+-@;@      >@,@'@@.D k )@!@q ~@{@",
"      ]@< ! s (.^@        /@(@_@:@<@[@        }@|@'@l.#.j 1@2@3@y+4@5@",
"      6@7@0 r 2 8@9@                        0@a@u.b@c@F c  @W 9 d@e@f@",
"        g@h@[ } 3 H+i@j@k@            l@m@n@u.9.v.o@p@c q@) f+8+r@s@  ",
"          t@u@[ r b v@i w@x@y@z@A@B@C@D@F.l.v.#.E E@F@G@H@< <.I@J@    ",
"            K@L@-.}.p+M@k i E D Q u+u+Q #.R h N@O@P@      Q@R@S@      ",
"                T@U@) } V@3 c k W@j j W@H+X@Y@Z@          `@ #        ",
"                    .#+#@#{ } | s b ##$#%#&#              *#=#-#      ",
"                          ;#>#,#'#)#!#                                "};
